<svg width="27" height="40" viewBox="0 0 27 40" fill="none" xmlns="http://www.w3.org/2000/svg">
<path d="M13.3333 20C13.3333 18.2319 14.0357 16.5362 15.286 15.286C16.5362 14.0357 18.2319 13.3333 20 13.3333C21.7681 13.3333 23.4638 14.0357 24.714 15.286C25.9643 16.5362 26.6667 18.2319 26.6667 20C26.6667 21.7681 25.9643 23.4638 24.714 24.714C23.4638 25.9643 21.7681 26.6667 20 26.6667C18.2319 26.6667 16.5362 25.9643 15.286 24.714C14.0357 23.4638 13.3333 21.7681 13.3333 20ZM0 33.3333C0 31.5652 0.702379 29.8695 1.95262 28.6193C3.20286 27.369 4.89856 26.6667 6.66667 26.6667H13.3333V33.3333C13.3333 35.1014 12.631 36.7971 11.3807 38.0474C10.1305 39.2976 8.43478 40 6.66667 40C4.89856 40 3.20286 39.2976 1.95262 38.0474C0.702379 36.7971 0 35.1014 0 33.3333ZM13.3333 0V13.3333H20C21.7681 13.3333 23.4638 12.631 24.714 11.3807C25.9643 10.1305 26.6667 8.43478 26.6667 6.66667C26.6667 4.89856 25.9643 3.20286 24.714 1.95262C23.4638 0.702379 21.7681 0 20 0L13.3333 0ZM0 6.66667C0 8.43478 0.702379 10.1305 1.95262 11.3807C3.20286 12.631 4.89856 13.3333 6.66667 13.3333H13.3333V0H6.66667C4.89856 0 3.20286 0.702379 1.95262 1.95262C0.702379 3.20286 0 4.89856 0 6.66667V6.66667ZM0 20C0 21.7681 0.702379 23.4638 1.95262 24.714C3.20286 25.9643 4.89856 26.6667 6.66667 26.6667H13.3333V13.3333H6.66667C4.89856 13.3333 3.20286 14.0357 1.95262 15.286C0.702379 16.5362 0 18.2319 0 20V20Z" fill="#00E38F"/>
</svg>
