<svg width="42" height="40" viewBox="0 0 42 40" fill="none" xmlns="http://www.w3.org/2000/svg">
<path d="M20.5462 1.7189e-06C9.1944 -0.0045886 0 9.18522 0 20.5279C0 29.4974 5.75166 37.1219 13.7618 39.922C14.8405 40.1928 14.6752 39.4262 14.6752 38.9029V35.3454C8.44618 36.0753 8.19371 31.9532 7.77599 31.2646C6.93137 29.8233 4.93459 29.456 5.53133 28.7675C6.94974 28.0376 8.39568 28.9511 10.0711 31.4253C11.283 33.2201 13.647 32.9171 14.8451 32.6188C15.1067 31.5401 15.6667 30.5761 16.4379 29.8279C9.98393 28.6711 7.29401 24.7326 7.29401 20.0505C7.29401 17.7783 8.04223 15.6897 9.51113 14.0051C8.57471 11.2279 9.59835 8.85013 9.73606 8.49667C12.403 8.25798 15.1756 10.4062 15.3913 10.5761C16.9061 10.1675 18.6367 9.9518 20.5738 9.9518C22.5201 9.9518 24.2552 10.1767 25.7838 10.5899C26.3025 10.1951 28.8731 8.34978 31.3518 8.57471C31.485 8.92816 32.4857 11.2509 31.6043 13.9913C33.0916 15.6805 33.849 17.7875 33.849 20.0643C33.849 24.7556 31.1407 28.6986 24.6683 29.837C25.2227 30.3822 25.6629 31.0324 25.9632 31.7496C26.2635 32.4668 26.4178 33.2367 26.4173 34.0142V39.1783C26.454 39.5915 26.4173 40 27.1058 40C35.2353 37.2596 41.0879 29.58 41.0879 20.5325C41.0879 9.18522 31.8889 1.7189e-06 20.5462 1.7189e-06V1.7189e-06Z" fill="#00E38F"/>
</svg>
