<?xml version="1.0" encoding="UTF-8" standalone="no"?><!DOCTYPE svg PUBLIC "-//W3C//DTD SVG 1.1//EN" "http://www.w3.org/Graphics/SVG/1.1/DTD/svg11.dtd"><svg width="100%" height="100%" viewBox="0 0 2459 2463" version="1.1" xmlns="http://www.w3.org/2000/svg" xmlns:xlink="http://www.w3.org/1999/xlink" xml:space="preserve" xmlns:serif="http://www.serif.com/" style="fill-rule:evenodd;clip-rule:evenodd;stroke-linejoin:round;stroke-miterlimit:2;"><path d="M1532.67,493.484c73.013,-151.764 161.972,-276.92 257.051,-340.777c24.029,-16.138 56.303,-11.933 75.394,9.824c149.666,170.558 155.974,441.769 115.7,661.53c6.872,4.973 13.045,11.163 18.179,18.508c106.467,152.31 168.966,337.585 168.966,537.345c-0,518.435 -420.904,939.338 -939.339,939.338c-1.192,0 -2.384,-0.002 -3.622,-0.007c-1.238,0.005 -2.43,0.007 -3.622,0.007c-518.435,0 -939.339,-420.903 -939.339,-939.338c0,-199.76 62.499,-385.035 168.966,-537.345c4.297,-6.148 9.323,-11.487 14.875,-15.978c-40.788,-220.16 -35.019,-492.833 115.234,-664.06c19.091,-21.757 51.365,-25.962 75.394,-9.824c94.863,63.712 183.635,188.447 256.55,339.737c96.604,-33.595 200.345,-51.869 308.32,-51.869c109.089,-0 213.857,18.652 311.293,52.909Zm153.901,1302.68c5.951,-28.452 9.07,-57.872 9.07,-87.982c-0,-143.107 -70.618,-270.49 -179.977,-352.781c-25.397,-19.11 -30.501,-55.245 -11.39,-80.642c19.11,-25.396 55.245,-30.5 80.642,-11.39c15.387,11.579 30.156,23.872 44.246,36.822c112.504,-134.56 196.353,-298.063 231.18,-460.73c37.647,-175.832 51.479,-401.365 -48.825,-557.126c-67.221,62.521 -127.949,160.785 -180.881,273.327c-100.414,213.497 -169.873,479.086 -186.825,673.776c-0.164,2.392 -0.479,4.793 -0.953,7.192c-1.104,5.649 -3.023,10.976 -5.618,15.866c-4.528,8.562 -11.052,15.642 -18.791,20.833c-7.729,5.2 -16.752,8.562 -26.392,9.514c-5.508,0.554 -11.165,0.315 -16.812,-0.8c-2.397,-0.469 -4.736,-1.084 -7.006,-1.834c-46.234,-14.292 -95.563,-21.999 -146.764,-21.999c-47.058,-0 -92.534,6.51 -135.487,18.662c-6.412,3.267 -13.549,5.378 -21.158,6.034c-31.667,2.73 -59.593,-20.763 -62.323,-52.429c-16.792,-194.771 -86.32,-460.933 -186.915,-674.815c-52.932,-112.542 -113.66,-210.806 -180.881,-273.327c-100.304,155.761 -86.472,381.294 -48.825,557.126c34.682,161.99 117.979,324.81 229.761,459.029c12.842,-11.7 26.223,-22.842 40.114,-33.401c25.304,-19.233 61.463,-14.304 80.696,11c19.233,25.304 14.305,61.463 -10.999,80.696c-108.316,82.329 -178.148,209.09 -178.148,351.397c0,30.11 3.119,59.53 9.07,87.982c104.202,45.009 273.768,74.315 465.095,74.315c191.328,0 360.893,-29.306 465.096,-74.315Zm-359.909,-22.684c-0,35.222 -47.133,63.817 -105.187,63.817c-58.054,0 -105.186,-28.595 -105.186,-63.817c-0,-35.221 47.132,-63.817 105.186,-63.817c58.054,0 105.187,28.596 105.187,63.817Zm-339.667,-245.871c33.305,-0 60.344,40.456 60.344,90.286c-0,49.831 -27.039,90.287 -60.344,90.287c-33.304,0 -60.343,-40.456 -60.343,-90.287c-0,-49.83 27.039,-90.286 60.343,-90.286Zm469.15,-0c33.305,-0 60.344,40.456 60.344,90.286c-0,49.831 -27.039,90.287 -60.344,90.287c-33.304,0 -60.343,-40.456 -60.343,-90.287c-0,-49.83 27.039,-90.286 60.343,-90.286Zm466.157,-497.336c-50.236,127.85 -124.876,250.967 -215.844,356.84c53.593,74.273 89.06,161.366 100.421,255.42c52.321,14.753 97.162,31.477 132.863,49.725c41.715,-95.709 64.855,-201.345 64.855,-312.343c0,-125.627 -29.635,-244.387 -82.295,-349.642Zm-1396.7,4.228c-51.35,104.208 -80.197,221.469 -80.197,345.414c-0,109.834 22.657,214.418 63.561,309.356c34.73,-17.11 77.577,-32.838 127.117,-46.795c11.469,-94.895 47.49,-182.72 101.916,-257.433c-89.155,-104.23 -162.501,-225.016 -212.397,-350.542Zm945.21,-397.201c-78.349,-26.341 -162.237,-40.606 -249.431,-40.606c-86.046,0 -168.872,13.891 -246.354,39.579c66.443,172.169 114.058,360.168 134.811,516.912c36.145,-6.661 73.47,-10.152 111.641,-10.152c39.297,-0 77.696,3.7 114.841,10.749c20.668,-156.548 68.169,-344.361 134.492,-516.482Z" style="fill:#004295;"/></svg>