<?xml version="1.0" encoding="UTF-8" standalone="no"?><!DOCTYPE svg PUBLIC "-//W3C//DTD SVG 1.1//EN" "http://www.w3.org/Graphics/SVG/1.1/DTD/svg11.dtd"><svg width="100%" height="100%" viewBox="0 0 5609 2538" version="1.1" xmlns="http://www.w3.org/2000/svg" xmlns:xlink="http://www.w3.org/1999/xlink" xml:space="preserve" xmlns:serif="http://www.serif.com/" style="fill-rule:evenodd;clip-rule:evenodd;stroke-linejoin:round;stroke-miterlimit:2;"><path d="M1472.07,580.961c66.916,-139.089 148.446,-253.793 235.585,-312.317c22.022,-14.791 51.6,-10.937 69.097,9.003c137.167,156.314 142.949,404.876 106.038,606.284c6.297,4.558 11.955,10.231 16.661,16.962c97.575,139.591 154.855,309.393 154.855,492.47c-0,475.14 -385.753,860.893 -860.893,860.893c-1.093,-0 -2.185,-0.003 -3.319,-0.007c-1.135,0.004 -2.227,0.007 -3.32,0.007c-475.139,-0 -860.892,-385.753 -860.892,-860.893c-0,-183.077 57.279,-352.879 154.855,-492.47c3.938,-5.634 8.544,-10.527 13.633,-14.643c-37.382,-201.774 -32.095,-451.675 105.61,-608.603c17.497,-19.94 47.076,-23.794 69.098,-9.003c86.941,58.391 168.299,172.709 235.125,311.364c88.536,-30.789 183.614,-47.537 282.571,-47.537c99.979,-0 195.997,17.094 285.296,48.49Zm3444.17,1284.9c6.163,6.163 12.84,11.356 20.03,15.579c7.19,4.223 14.095,7.646 20.715,10.271c6.619,2.625 12.44,4.509 17.462,5.65c5.021,1.141 8.445,1.712 10.271,1.712c4.337,-0 9.872,-0.171 16.606,-0.514c6.734,-0.342 13.182,-1.369 19.345,-3.081c6.163,-1.712 11.47,-4.508 15.921,-8.389c4.451,-3.88 6.677,-9.358 6.677,-16.435c-0,-6.391 -1.256,-11.47 -3.767,-15.236c-2.51,-3.766 -6.163,-6.962 -10.956,-9.587c-4.793,-2.625 -10.671,-4.964 -17.633,-7.019c-6.962,-2.054 -14.78,-4.451 -23.454,-7.19c-27.391,-7.304 -49.988,-16.092 -67.793,-26.364c-17.804,-10.271 -31.899,-21.742 -42.285,-34.41c-10.386,-12.668 -17.633,-26.307 -21.741,-40.915c-4.109,-14.609 -6.163,-30.017 -6.163,-46.223c-0,-18.945 3.766,-36.179 11.298,-51.701c7.533,-15.521 18.261,-28.817 32.185,-39.888c13.924,-11.071 30.587,-19.63 49.989,-25.679c19.402,-6.049 40.972,-9.073 64.711,-9.073c14.381,-0 27.848,1.198 40.402,3.595c12.554,2.396 24.538,6.163 35.951,11.298c11.413,5.136 22.541,11.756 33.383,19.859c10.842,8.103 21.628,17.747 32.356,28.932c3.88,4.565 5.877,8.845 5.992,12.839c0.114,3.995 -2.454,8.275 -7.704,12.84c-8.902,7.304 -17.405,14.495 -25.508,21.571c-8.103,7.076 -16.492,14.951 -25.166,23.624c-2.739,2.283 -5.478,3.71 -8.217,4.28c-2.739,0.571 -5.364,0.514 -7.875,-0.171c-2.511,-0.685 -4.908,-1.826 -7.19,-3.424c-2.283,-1.598 -4.337,-3.538 -6.163,-5.82c-7.989,-8.903 -17.12,-14.894 -27.391,-17.976c-10.272,-3.081 -19.859,-4.622 -28.761,-4.622c-11.185,-0 -20.087,1.94 -26.706,5.821c-6.62,3.88 -9.701,9.815 -9.245,17.804c0.457,5.934 2.682,10.557 6.677,13.867c3.994,3.309 8.902,5.991 14.722,8.046c5.821,2.054 11.984,3.709 18.489,4.964c6.506,1.256 12.498,2.682 17.976,4.28c20.543,6.62 39.375,13.81 56.494,21.571c17.119,7.76 31.956,17.29 44.511,28.589c12.554,11.299 22.312,24.823 29.274,40.573c6.962,15.75 10.443,34.924 10.443,57.522c-0,22.597 -4.508,42.798 -13.525,60.602c-9.016,17.805 -21.399,32.756 -37.149,44.853c-15.75,12.098 -34.41,21.343 -55.98,27.734c-21.571,6.391 -44.796,9.587 -69.677,9.587c-14.152,-0 -28.532,-1.256 -43.141,-3.766c-14.608,-2.511 -28.76,-6.563 -42.456,-12.155c-13.695,-5.593 -26.706,-12.783 -39.032,-21.571c-12.326,-8.788 -23.283,-19.459 -32.87,-32.013c-2.51,-3.196 -4.394,-6.563 -5.649,-10.101c-1.255,-3.538 -1.826,-7.019 -1.712,-10.443c0.114,-3.423 0.799,-6.562 2.054,-9.415c1.256,-2.853 3.253,-5.307 5.992,-7.362l44.168,-44.168c5.479,-4.565 10.329,-6.163 14.552,-4.793c4.223,1.369 9.644,5.25 16.263,11.641Zm-1695.51,109.907c0,3.88 -0.685,7.59 -2.054,11.128c-1.37,3.538 -3.652,6.334 -6.848,8.388c-2.511,2.511 -5.478,4.109 -8.902,4.794c-3.424,0.684 -6.391,1.027 -8.902,1.027l-67.451,-0c-4.793,-0 -8.674,-0.628 -11.641,-1.883c-2.967,-1.256 -5.364,-3.025 -7.19,-5.307c-1.826,-2.283 -3.367,-5.079 -4.623,-8.389c-1.255,-3.31 -2.567,-6.905 -3.937,-10.785l-4.451,-15.408c-6.163,6.163 -13.182,12.212 -21.057,18.147c-7.875,5.935 -16.549,11.242 -26.022,15.921c-9.472,4.679 -19.63,8.446 -30.472,11.299c-10.842,2.853 -22.084,4.28 -33.725,4.28c-20.772,-0 -40.688,-2.625 -59.747,-7.875c-19.06,-5.25 -36.864,-12.726 -53.413,-22.427c-16.549,-9.701 -31.557,-21.342 -45.024,-34.923c-13.468,-13.582 -25.052,-28.704 -34.753,-45.367c-9.701,-16.663 -17.176,-34.638 -22.426,-53.926c-5.25,-19.288 -7.875,-39.432 -7.875,-60.432c-0,-31.728 5.821,-61.231 17.462,-88.508c11.641,-27.276 27.505,-51.015 47.592,-71.216c20.087,-20.201 43.711,-36.065 70.874,-47.592c27.163,-11.528 56.266,-17.291 87.31,-17.291c14.152,-0 27.334,1.598 39.545,4.793c12.212,3.196 23.397,7.533 33.555,13.011c10.157,5.478 19.345,12.041 27.562,19.687c8.217,7.647 15.407,15.922 21.57,24.824l9.93,-31.158c2.282,-5.706 4.165,-10.328 5.649,-13.866c1.484,-3.539 3.082,-6.163 4.794,-7.875c1.711,-1.712 3.823,-2.854 6.334,-3.424c2.511,-0.571 6.049,-0.856 10.614,-0.856l51.016,-0c2.511,-0 5.478,0.342 8.902,1.027c3.424,0.685 6.391,2.282 8.902,4.793c3.196,2.511 5.478,5.364 6.848,8.56c1.369,3.196 2.054,6.848 2.054,10.956l0,385.873Zm203.722,-1.027c-2.055,4.337 -3.767,8.16 -5.136,11.47c-1.37,3.31 -2.911,6.049 -4.623,8.217c-1.711,2.169 -3.823,3.823 -6.334,4.965c-2.511,1.141 -5.934,1.712 -10.271,1.712l-67.793,-0c-18.261,-0 -27.392,-8.788 -27.392,-26.364l0,-511.529c0,-3.881 0.742,-7.419 2.226,-10.614c1.484,-3.196 3.424,-5.935 5.821,-8.218c2.396,-2.282 5.135,-4.051 8.217,-5.307c3.081,-1.255 6.106,-1.883 9.073,-1.883l77.723,0c8.673,0 15.521,2.511 20.543,7.533c5.022,5.021 7.532,11.184 7.532,18.489l0,142.433c6.392,-6.847 13.239,-13.125 20.544,-18.831c7.304,-5.706 15.236,-10.557 23.796,-14.552c8.56,-3.994 17.975,-7.133 28.247,-9.415c10.272,-2.283 21.685,-3.424 34.239,-3.424c31.043,-0 59.633,5.763 85.768,17.291c26.136,11.527 48.619,27.391 67.451,47.592c18.831,20.201 33.554,43.94 44.168,71.216c10.614,27.277 15.921,56.78 15.921,88.508c0,31.5 -5.307,60.945 -15.921,88.336c-10.614,27.392 -25.337,51.188 -44.168,71.389c-18.832,20.2 -41.315,36.122 -67.451,47.763c-26.135,11.641 -54.725,17.462 -85.768,17.462c-11.641,-0 -22.769,-1.484 -33.383,-4.451c-10.614,-2.968 -20.601,-6.848 -29.959,-11.642c-9.359,-4.793 -17.976,-10.214 -25.851,-16.263c-7.874,-6.049 -14.893,-12.155 -21.056,-18.318l-6.163,16.435Zm520.431,-0c-2.055,4.337 -3.766,8.16 -5.136,11.47c-1.37,3.31 -2.91,6.049 -4.622,8.217c-1.712,2.169 -3.824,3.823 -6.334,4.965c-2.511,1.141 -5.935,1.712 -10.272,1.712l-67.793,-0c-18.261,-0 -27.391,-8.788 -27.391,-26.364l-0,-511.529c-0,-3.881 0.742,-7.419 2.225,-10.614c1.484,-3.196 3.424,-5.935 5.821,-8.218c2.397,-2.282 5.136,-4.051 8.217,-5.307c3.082,-1.255 6.106,-1.883 9.074,-1.883l77.722,0c8.674,0 15.521,2.511 20.543,7.533c5.022,5.021 7.533,11.184 7.533,18.489l-0,142.433c6.391,-6.847 13.239,-13.125 20.543,-18.831c7.304,-5.706 15.236,-10.557 23.796,-14.552c8.56,-3.994 17.976,-7.133 28.247,-9.415c10.272,-2.283 21.685,-3.424 34.239,-3.424c31.043,-0 59.633,5.763 85.769,17.291c26.135,11.527 48.619,27.391 67.45,47.592c18.832,20.201 33.554,43.94 44.168,71.216c10.614,27.277 15.921,56.78 15.921,88.508c0,31.5 -5.307,60.945 -15.921,88.336c-10.614,27.392 -25.336,51.188 -44.168,71.389c-18.831,20.2 -41.315,36.122 -67.45,47.763c-26.136,11.641 -54.726,17.462 -85.769,17.462c-11.641,-0 -22.769,-1.484 -33.383,-4.451c-10.614,-2.968 -20.6,-6.848 -29.959,-11.642c-9.359,-4.793 -17.975,-10.214 -25.85,-16.263c-7.875,-6.049 -14.894,-12.155 -21.057,-18.318l-6.163,16.435Zm398.541,-381.764c-0,-7.304 2.054,-13.581 6.163,-18.831c4.108,-5.25 10.5,-7.875 19.173,-7.875l78.407,-0c2.74,-0 5.707,0.627 8.903,1.883c3.195,1.255 6.163,3.081 8.902,5.478c2.739,2.397 5.078,5.193 7.019,8.389c1.94,3.195 2.91,6.847 2.91,10.956l-0,381.764c-0,8.674 -2.397,15.236 -7.19,19.687c-4.794,4.451 -11.641,6.677 -20.544,6.677l-78.407,-0c-16.891,-0 -25.336,-8.788 -25.336,-26.364l-0,-381.764Zm240.014,-94.499c0,-7.076 2.34,-12.383 7.019,-15.921c4.68,-3.538 11.356,-6.905 20.03,-10.101l77.722,-27.049c1.142,-0.228 2.226,-0.342 3.253,-0.342l2.91,-0c8.446,-0 14.095,2.454 16.949,7.361c2.853,4.908 4.279,11.356 4.279,19.345l-0.342,94.157l46.907,0c7.305,0 13.239,2.169 17.805,6.506c4.565,4.337 6.847,10.842 6.847,19.516l0,66.081c0,9.587 -2.282,16.606 -6.847,21.057c-4.566,4.451 -10.5,6.676 -17.805,6.676l-46.907,0l0.342,288.977c0,8.674 -2.51,15.236 -7.532,19.687c-5.022,4.451 -11.984,6.677 -20.886,6.677l-77.38,-0c-17.576,-0 -26.364,-8.788 -26.364,-26.364l-0.342,-288.977l-35.266,0c-17.576,0 -26.364,-9.244 -26.364,-27.733l-0,-66.081c-0,-17.348 8.788,-26.022 26.364,-26.022l35.266,0l0.342,-67.45Zm-2253.95,9.929c-0,-4.794 1.255,-8.617 3.766,-11.47c2.511,-2.853 6.277,-4.28 11.299,-4.28l221.183,0c23.511,0 45.538,4.394 66.081,13.182c20.543,8.788 38.462,20.715 53.755,35.78c15.293,15.065 27.334,32.698 36.122,52.899c8.788,20.201 13.182,41.714 13.182,64.54c0,15.522 -2.111,30.301 -6.334,44.339c-4.223,14.038 -10.101,27.163 -17.633,39.375c-7.533,12.212 -16.492,23.283 -26.878,33.212c-10.385,9.929 -21.741,18.432 -34.067,25.508l87.994,165.716c1.597,3.196 3.652,6.962 6.163,11.299c2.51,4.337 3.766,8.103 3.766,11.299c-0,3.652 -1.198,6.448 -3.595,8.388c-2.397,1.941 -5.65,2.911 -9.758,2.911l-117.44,-0c-3.88,-0 -7.361,-1.142 -10.443,-3.424c-3.081,-2.283 -5.078,-5.364 -5.991,-9.245l-83.201,-156.471l-55.467,-0l0,154.417c0,9.815 -5.25,14.723 -15.75,14.723l-101.689,-0c-4.566,-0 -8.218,-1.199 -10.957,-3.595c-2.739,-2.397 -4.108,-6.106 -4.108,-11.128l-0,-477.975Zm553.985,275.623c-0,15.065 2.34,29.16 7.019,42.285c4.679,13.125 11.356,24.481 20.03,34.068c8.674,9.587 19.116,17.176 31.328,22.769c12.212,5.592 25.736,8.388 40.573,8.388c15.294,0 29.503,-2.796 42.628,-8.388c13.125,-5.593 24.538,-13.182 34.239,-22.769c9.701,-9.587 17.29,-20.943 22.769,-34.068c5.478,-13.125 8.217,-27.22 8.217,-42.285c-0,-14.609 -2.739,-28.532 -8.217,-41.771c-5.479,-13.239 -13.068,-24.881 -22.769,-34.924c-9.701,-10.043 -21.114,-17.976 -34.239,-23.796c-13.125,-5.821 -27.334,-8.731 -42.628,-8.731c-14.837,-0 -28.361,2.91 -40.573,8.731c-12.212,5.82 -22.654,13.753 -31.328,23.796c-8.674,10.043 -15.351,21.685 -20.03,34.924c-4.679,13.239 -7.019,27.162 -7.019,41.771Zm1267.87,0c0,-14.609 -2.339,-28.532 -7.019,-41.771c-4.679,-13.239 -11.355,-24.881 -20.029,-34.924c-8.674,-10.043 -19.06,-17.976 -31.158,-23.796c-12.097,-5.821 -25.679,-8.731 -40.744,-8.731c-15.065,-0 -29.16,2.91 -42.285,8.731c-13.125,5.82 -24.481,13.753 -34.068,23.796c-9.587,10.043 -17.176,21.685 -22.769,34.924c-5.592,13.239 -8.388,27.162 -8.388,41.771l-0,4.794c0.685,14.38 3.937,27.847 9.758,40.401c5.821,12.555 13.524,23.454 23.111,32.699c9.587,9.244 20.772,16.491 33.554,21.741c12.783,5.25 26.478,7.875 41.087,7.875c15.065,0 28.647,-2.796 40.744,-8.388c12.098,-5.593 22.484,-13.182 31.158,-22.769c8.674,-9.587 15.35,-20.943 20.029,-34.068c4.68,-13.125 7.019,-27.22 7.019,-42.285Zm-520.431,0c0,-14.609 -2.34,-28.532 -7.019,-41.771c-4.679,-13.239 -11.356,-24.881 -20.03,-34.924c-8.673,-10.043 -19.059,-17.976 -31.157,-23.796c-12.098,-5.821 -25.679,-8.731 -40.744,-8.731c-15.065,-0 -29.16,2.91 -42.285,8.731c-13.125,5.82 -24.481,13.753 -34.068,23.796c-9.587,10.043 -17.177,21.685 -22.769,34.924c-5.592,13.239 -8.388,27.162 -8.388,41.771l-0,4.794c0.684,14.38 3.937,27.847 9.758,40.401c5.82,12.555 13.524,23.454 23.111,32.699c9.587,9.244 20.771,16.491 33.554,21.741c12.783,5.25 26.478,7.875 41.087,7.875c15.065,0 28.646,-2.796 40.744,-8.388c12.098,-5.593 22.484,-13.182 31.157,-22.769c8.674,-9.587 15.351,-20.943 20.03,-34.068c4.679,-13.125 7.019,-27.22 7.019,-42.285Zm-2017.79,-9.178c5.454,-26.076 8.312,-53.039 8.312,-80.635c-0,-131.155 -64.72,-247.901 -164.947,-323.319c-23.276,-17.514 -27.953,-50.631 -10.438,-73.907c17.514,-23.276 50.631,-27.954 73.907,-10.439c14.103,10.612 27.638,21.878 40.551,33.747c103.109,-123.323 179.955,-273.171 211.874,-422.254c34.502,-161.147 47.18,-367.846 -44.748,-510.599c-61.607,57.3 -117.264,147.357 -165.775,250.501c-92.029,195.667 -155.686,439.077 -171.223,617.507c-0.15,2.192 -0.439,4.393 -0.873,6.592c-1.012,5.177 -2.771,10.059 -5.149,14.54c-4.15,7.848 -10.129,14.337 -17.221,19.094c-7.084,4.766 -15.353,7.846 -24.189,8.719c-5.048,0.508 -10.232,0.289 -15.408,-0.733c-2.196,-0.429 -4.34,-0.993 -6.42,-1.681c-42.374,-13.098 -87.583,-20.162 -134.508,-20.162c-43.128,0 -84.806,5.967 -124.172,17.104c-5.876,2.994 -12.418,4.928 -19.392,5.53c-29.021,2.502 -54.615,-19.029 -57.117,-48.051c-15.39,-178.504 -79.111,-422.439 -171.306,-618.459c-48.511,-103.144 -104.167,-193.201 -165.775,-250.501c-91.927,142.753 -79.25,349.452 -44.748,510.599c31.787,148.462 108.127,297.685 210.574,420.695c11.77,-10.723 24.033,-20.935 36.764,-30.612c23.191,-17.627 56.33,-13.11 73.957,10.081c17.627,23.191 13.11,56.33 -10.081,73.957c-99.27,75.454 -163.27,191.629 -163.27,322.051c-0,27.596 2.858,54.559 8.312,80.635c95.501,41.25 250.905,68.109 426.254,68.109c175.349,-0 330.754,-26.859 426.255,-68.109Zm-329.852,-20.79c-0,32.28 -43.197,58.488 -96.403,58.488c-53.205,-0 -96.402,-26.208 -96.402,-58.488c0,-32.28 43.197,-58.487 96.402,-58.487c53.206,-0 96.403,26.207 96.403,58.487Zm1314.31,-93.634c0,-6.848 -1.255,-13.696 -3.766,-20.544c-2.511,-6.847 -6.049,-13.125 -10.614,-18.831c-4.565,-5.707 -10.044,-10.5 -16.435,-14.38c-6.391,-3.881 -13.467,-6.392 -21.228,-7.533c-6.391,-0.457 -12.383,-0.856 -17.975,-1.198c-5.593,-0.343 -11.699,-0.514 -18.318,-0.514l-47.25,0l0,125.657l63,-0c4.108,-0 7.76,-0.114 10.956,-0.343c3.196,-0.228 6.734,-0.57 10.614,-1.027c7.989,-0.913 15.179,-3.252 21.571,-7.019c6.391,-3.766 11.755,-8.445 16.092,-14.038c4.337,-5.592 7.647,-11.869 9.929,-18.831c2.283,-6.962 3.424,-14.095 3.424,-21.399Zm-1195.64,-131.704c30.523,0 55.304,37.078 55.304,82.747c0,45.669 -24.781,82.746 -55.304,82.746c-30.523,0 -55.304,-37.077 -55.304,-82.746c0,-45.669 24.781,-82.747 55.304,-82.747Zm-429.97,0c30.523,0 55.304,37.078 55.304,82.747c0,45.669 -24.781,82.746 -55.304,82.746c-30.523,0 -55.304,-37.077 -55.304,-82.746c0,-45.669 24.781,-82.747 55.304,-82.747Zm857.197,-455.802c-46.04,117.173 -114.447,230.008 -197.818,327.04c49.117,68.07 81.622,147.889 92.034,234.089c47.952,13.52 89.048,28.848 121.768,45.572c38.231,-87.716 59.439,-184.53 59.439,-286.259c-0,-115.135 -27.16,-223.977 -75.423,-320.442Zm-1280.06,3.875c-47.062,95.506 -73.499,202.974 -73.499,316.567c-0,100.662 20.765,196.512 58.253,283.522c31.829,-15.682 71.098,-30.096 116.501,-42.888c10.511,-86.969 43.524,-167.46 93.404,-235.934c-81.709,-95.525 -148.93,-206.224 -194.659,-321.267Zm3794.32,342.931c-0,-9.587 2.054,-16.377 6.163,-20.372c4.108,-3.995 10.5,-5.992 19.173,-5.992l79.435,0c7.989,0 14.437,1.997 19.345,5.992c4.907,3.995 7.361,10.785 7.361,20.372l-0,66.766c-0,2.739 -0.628,5.706 -1.883,8.902c-1.256,3.196 -3.025,6.277 -5.307,9.245c-2.283,2.967 -5.079,5.421 -8.389,7.361c-3.309,1.94 -7.019,2.91 -11.127,2.91l-79.435,0c-16.891,0 -25.336,-9.472 -25.336,-28.418l-0,-66.766Zm3.381,-187.884c-6.165,6.165 -13.186,12.273 -21.064,18.323c-7.878,6.051 -16.44,11.474 -25.688,16.269c-9.247,4.795 -19.18,8.677 -29.797,11.645c-10.618,2.969 -21.863,4.453 -33.737,4.453c-31.053,-0 -59.652,-5.823 -85.797,-17.468c-26.144,-11.645 -48.635,-27.571 -67.473,-47.779c-18.837,-20.207 -33.565,-44.011 -44.183,-71.412c-10.617,-27.4 -15.926,-56.855 -15.926,-88.365c-0,-31.739 5.309,-61.251 15.926,-88.537c10.618,-27.286 25.346,-51.033 44.183,-71.241c18.838,-20.207 41.329,-36.077 67.473,-47.608c26.145,-11.531 54.744,-17.296 85.797,-17.296c12.559,-0 24.032,1.085 34.422,3.254c10.389,2.169 19.865,5.309 28.427,9.419c8.563,4.11 16.44,9.019 23.633,14.727c7.193,5.709 13.986,11.988 20.379,18.838l-0,-142.824c-0,-7.307 2.226,-13.472 6.679,-18.495c4.452,-5.023 11.131,-7.535 20.036,-7.535l77.063,-0c2.969,-0 6.108,0.628 9.419,1.884c3.311,1.256 6.336,3.025 9.076,5.309c2.74,2.283 4.967,5.023 6.679,8.22c1.713,3.196 2.569,6.735 2.569,10.617l-0,512.042c-0,17.582 -9.248,26.372 -27.743,26.372l-67.13,0c-4.567,0 -8.106,-0.57 -10.618,-1.712c-2.512,-1.142 -4.624,-2.797 -6.336,-4.966c-1.713,-2.17 -3.254,-4.91 -4.624,-8.22c-1.37,-3.311 -3.082,-7.136 -5.137,-11.474l-6.508,-16.44Zm-1434.4,-174.334c-0,-21.007 2.683,-41.215 8.048,-60.623c5.366,-19.409 12.901,-37.39 22.606,-53.944c9.704,-16.555 21.349,-31.625 34.935,-45.211c13.586,-13.586 28.713,-25.174 45.382,-34.764c16.668,-9.59 34.649,-17.011 53.944,-22.262c19.294,-5.252 39.445,-7.878 60.451,-7.878c31.054,-0 60.224,5.765 87.51,17.296c27.286,11.531 51.033,27.401 71.24,47.608c20.208,20.208 36.192,43.955 47.951,71.241c11.759,27.286 17.639,56.798 17.639,88.537c-0,21.007 -2.683,41.157 -8.049,60.451c-5.366,19.295 -12.901,37.276 -22.605,53.945c-9.705,16.668 -21.35,31.795 -34.936,45.381c-13.585,13.586 -28.713,25.231 -45.381,34.936c-16.669,9.704 -34.536,17.182 -53.602,22.433c-19.066,5.252 -38.988,7.878 -59.767,7.878c-21.006,-0 -41.157,-2.626 -60.451,-7.878c-19.295,-5.251 -37.276,-12.729 -53.944,-22.433c-16.669,-9.705 -31.796,-21.35 -45.382,-34.936c-13.586,-13.586 -25.231,-28.713 -34.935,-45.381c-9.705,-16.669 -17.24,-34.65 -22.606,-53.945c-5.365,-19.294 -8.048,-39.444 -8.048,-60.451Zm1799.42,-76.445c0,-5.395 1.518,-10.032 4.553,-13.91c3.035,-3.878 7.756,-5.817 14.163,-5.817l57.916,0c2.023,0 4.215,0.464 6.576,1.391c2.36,0.928 4.552,2.276 6.575,4.047c2.024,1.77 3.752,3.836 5.185,6.196c1.433,2.361 2.15,5.058 2.15,8.093l-0,281.995c-0,6.407 -1.771,11.254 -5.311,14.542c-3.541,3.288 -8.599,4.932 -15.175,4.932l-57.916,-0c-12.477,-0 -18.716,-6.491 -18.716,-19.474l0,-281.995Zm164.392,-15.202c2.192,-1.855 4.51,-3.035 6.955,-3.541c2.445,-0.506 4.763,-0.759 6.955,-0.759l38.189,0c3.035,0 5.649,0.548 7.84,1.644c2.192,1.096 4.047,2.57 5.564,4.42c1.518,1.851 2.74,3.953 3.668,6.307c0.927,2.354 1.812,4.792 2.655,7.313l5.311,22.193c2.529,-5.211 6.618,-10.591 12.266,-16.139c5.649,-5.548 12.646,-10.592 20.992,-15.131c8.346,-4.539 17.999,-8.28 28.958,-11.223c10.96,-2.943 23.184,-4.414 36.672,-4.414c19.221,-0 36.377,3.699 51.467,11.096c15.091,7.398 27.905,17.486 38.443,30.265c10.538,12.778 18.546,27.71 24.026,44.796c5.48,17.086 8.22,35.324 8.22,54.714l-0,165.656c-0,6.407 -1.391,11.254 -4.173,14.542c-2.782,3.288 -7.208,4.932 -13.278,4.932l-58.422,-0c-7.25,-0 -12.224,-1.222 -14.922,-3.667c-2.698,-2.445 -4.047,-7.208 -4.047,-14.29l0,-164.644c0,-7.25 -1.643,-14.121 -4.931,-20.612c-3.288,-6.492 -7.63,-12.224 -13.025,-17.198c-5.396,-4.974 -11.508,-8.894 -18.336,-11.76c-6.829,-2.867 -13.784,-4.3 -20.865,-4.3c-6.07,0 -12.266,1.349 -18.589,4.047c-6.323,2.697 -12.14,6.449 -17.451,11.254c-5.311,4.805 -9.779,10.454 -13.404,16.945c-3.625,6.491 -5.691,13.531 -6.196,21.118l-0,164.392c-0,2.866 -0.548,5.732 -1.644,8.599c-1.096,2.866 -2.74,5.058 -4.932,6.575c-2.192,1.349 -4.257,2.276 -6.196,2.782c-1.939,0.506 -4.173,0.759 -6.703,0.759l-57.157,-0c-7.25,-0 -12.477,-1.77 -15.681,-5.311c-3.203,-3.541 -4.805,-8.262 -4.805,-14.163l0,-282.821c0,-3.193 0.717,-6.135 2.15,-8.826c1.433,-2.691 3.414,-4.793 5.943,-6.305l-1.517,0.755Zm-2466.61,301.601c-2.284,-3.882 -4.453,-7.878 -6.508,-11.988c-2.055,-4.11 -3.882,-8.22 -5.48,-12.33c-29.455,-77.634 -58.796,-154.583 -88.023,-230.847c-29.227,-76.264 -58.568,-153.213 -88.023,-230.846c-0,-1.142 -0.172,-2.17 -0.514,-3.083c-0.343,-0.913 -0.514,-1.827 -0.514,-2.74c0,-6.393 4.224,-9.59 12.673,-9.59l110.286,-0c8.676,-0 14.613,4.338 17.81,13.015l104.806,312.02l96.928,-312.02c3.197,-8.677 9.476,-13.015 18.838,-13.015l111.313,-0c5.252,-0 8.962,0.97 11.131,2.911c2.169,1.941 3.254,4.51 3.254,7.707c0,1.826 -0.114,3.082 -0.342,3.767l-0,1.028l-60.966,174.676l45.895,134.603l110.971,-311.677c3.197,-8.677 9.476,-13.015 18.838,-13.015l107.888,-0c5.252,-0 8.962,0.97 11.132,2.911c2.169,1.941 3.253,4.51 3.253,7.707c0,1.826 -0.114,3.082 -0.342,3.767l-0,1.028c-15.527,40.187 -31.396,80.259 -47.608,120.218c-16.212,39.959 -32.481,79.917 -48.807,119.876c-16.326,39.959 -32.537,79.974 -48.635,120.047c-16.098,40.073 -31.796,80.089 -47.094,120.047c-0.913,2.512 -2.968,5.309 -6.165,8.392c-3.197,3.082 -7.079,4.623 -11.645,4.623l-83.913,0c-5.024,0 -8.848,-0.97 -11.474,-2.911c-2.626,-1.941 -4.51,-4.509 -5.652,-7.706l-54.115,-142.481c-7.763,20.778 -15.413,41.157 -22.948,61.136c-7.535,19.98 -15.07,40.359 -22.605,61.137c-1.141,3.197 -2.454,6.565 -3.939,10.104c-1.484,3.539 -3.253,6.85 -5.308,9.933c-2.055,3.082 -4.396,5.651 -7.022,7.706c-2.626,2.055 -5.651,3.082 -9.076,3.082l-83.913,0c-7.307,0 -12.102,-2.397 -14.385,-7.192Zm1020.66,-402.441c-0,-4.338 0.799,-8.106 2.397,-11.302c1.599,-3.197 3.711,-5.823 6.337,-7.878c2.625,-2.055 5.594,-3.596 8.905,-4.624c3.311,-1.027 6.564,-1.541 9.761,-1.541l51.718,0c5.708,0 10.275,1.713 13.7,5.138c3.425,3.425 6.336,7.763 8.734,13.015c2.397,5.251 4.509,11.074 6.336,17.467c1.827,6.394 3.996,12.559 6.508,18.495c6.85,-7.535 13.643,-14.956 20.379,-22.262c6.735,-7.307 13.985,-13.815 21.748,-19.523c7.764,-5.708 16.269,-10.332 25.517,-13.871c9.248,-3.539 19.808,-5.309 31.681,-5.309c12.331,-0 23.348,0.913 33.052,2.74c9.704,1.827 18.895,4.51 27.571,8.049c8.677,3.539 17.297,8.049 25.859,13.529c8.563,5.48 17.868,11.873 27.914,19.18c9.819,5.708 14.728,12.444 14.728,20.207c-0,5.024 -1.941,10.846 -5.823,17.468l-31.167,53.088c-6.165,8.905 -13.815,13.358 -22.948,13.358c-4.567,-0 -9.704,-1.256 -15.413,-3.768c-9.818,-9.59 -19.808,-16.725 -29.969,-21.406c-10.161,-4.681 -21.749,-7.022 -34.764,-7.022c-8.905,0 -16.725,1.256 -23.461,3.768c-6.736,2.512 -12.844,6.051 -18.324,10.617c-5.48,4.567 -10.618,10.047 -15.413,16.441c-4.795,6.393 -9.59,13.471 -14.385,21.235l0,247.972c0,8.676 -2.112,15.241 -6.336,19.694c-4.224,4.452 -11.246,6.678 -21.064,6.678l-77.063,0c-17.81,0 -26.715,-8.79 -26.715,-26.372l-0,-383.261Zm394.22,-128.438c0,-7.307 1.827,-13.472 5.48,-18.495c3.654,-5.024 9.933,-7.536 18.838,-7.536l83.913,0c2.284,0 4.681,0.628 7.193,1.884c2.511,1.256 4.852,3.026 7.021,5.309c2.169,2.283 3.996,5.023 5.48,8.22c1.484,3.197 2.226,6.736 2.226,10.618l0,511.699c0,8.676 -2.454,15.241 -7.363,19.694c-4.91,4.452 -11.246,6.678 -19.009,6.678l-79.461,0c-8.905,0 -15.184,-2.226 -18.838,-6.678c-3.653,-4.453 -5.48,-11.018 -5.48,-19.694l0,-511.699Zm-2409.11,-23.817c-71.806,-24.142 -148.689,-37.215 -228.601,-37.215c-78.86,-0 -154.769,12.73 -225.78,36.273c60.894,157.79 104.533,330.089 123.552,473.743c33.127,-6.104 67.335,-9.304 102.318,-9.304c36.015,0 71.208,3.391 105.25,9.852c18.943,-143.474 62.476,-315.603 123.261,-473.349Zm2731.06,344.742c-0,15.07 2.34,29.17 7.021,42.299c4.681,13.129 11.36,24.489 20.037,34.079c8.676,9.59 19.123,17.182 31.339,22.776c12.216,5.594 25.744,8.392 40.586,8.392c14.614,-0 28.371,-2.626 41.272,-7.878c12.901,-5.252 24.146,-12.501 33.736,-21.749c9.59,-9.247 17.297,-20.15 23.119,-32.709c5.823,-12.558 9.077,-26.03 9.762,-40.415l-0,-4.795c-0,-14.614 -2.74,-28.542 -8.221,-41.786c-5.48,-13.243 -13.072,-24.888 -22.776,-34.935c-9.704,-10.047 -21.121,-17.981 -34.25,-23.804c-13.13,-5.822 -27.343,-8.734 -42.642,-8.734c-14.842,0 -28.37,2.912 -40.586,8.734c-12.216,5.823 -22.663,13.757 -31.339,23.804c-8.677,10.047 -15.356,21.692 -20.037,34.935c-4.681,13.244 -7.021,27.172 -7.021,41.786Zm-1109.02,-0c0,15.07 2.341,29.17 7.021,42.299c4.681,13.129 11.303,24.489 19.866,34.079c8.562,9.59 18.951,17.182 31.167,22.776c12.216,5.594 25.974,8.392 41.272,8.392c14.842,-0 28.256,-2.798 40.244,-8.392c11.988,-5.594 22.149,-13.186 30.483,-22.776c8.334,-9.59 14.727,-20.95 19.18,-34.079c4.452,-13.129 6.679,-27.229 6.679,-42.299c-0,-14.614 -2.227,-28.542 -6.679,-41.786c-4.453,-13.243 -10.846,-24.888 -19.18,-34.935c-8.334,-10.047 -18.495,-17.981 -30.483,-23.804c-11.988,-5.822 -25.402,-8.734 -40.244,-8.734c-15.298,0 -29.056,2.912 -41.272,8.734c-12.216,5.823 -22.605,13.757 -31.167,23.804c-8.563,10.047 -15.185,21.692 -19.866,34.935c-4.68,13.244 -7.021,27.172 -7.021,41.786Zm1674.41,-204.417c0,-7.082 1.518,-12.098 4.553,-15.048c3.035,-2.951 7.756,-4.426 14.163,-4.426l58.675,-0c5.901,-0 10.664,1.475 14.289,4.426c3.625,2.95 5.438,7.966 5.438,15.048l-0,49.317c-0,2.023 -0.464,4.215 -1.391,6.576c-0.928,2.36 -2.234,4.637 -3.92,6.828c-1.686,2.192 -3.752,4.005 -6.197,5.438c-2.445,1.433 -5.184,2.15 -8.219,2.15l-58.675,-0c-12.477,-0 -18.716,-6.997 -18.716,-20.992l0,-49.317Z" style="fill:#004295;fill-rule:nonzero;"/></svg>